<svg width="755" height="269" viewBox="0 0 755 269" fill="none" xmlns="http://www.w3.org/2000/svg">
<path d="M6.35742 103.961C6.35742 87.6003 10.9147 74.8626 20.0293 65.748C29.1439 56.6335 41.8359 52.0762 58.1055 52.0762C74.7852 52.0762 87.6367 56.5651 96.6602 65.543C105.684 74.4753 110.195 87.0078 110.195 103.141C110.195 114.853 108.213 124.469 104.248 131.988C100.329 139.462 94.6322 145.296 87.1582 149.488C79.7298 153.635 70.4557 155.709 59.3359 155.709C48.0339 155.709 38.6686 153.909 31.2402 150.309C23.8574 146.708 17.8646 141.012 13.2617 133.219C8.65885 125.426 6.35742 115.673 6.35742 103.961ZM37.3242 104.098C37.3242 114.215 39.1927 121.484 42.9297 125.904C46.7122 130.325 51.8392 132.535 58.3105 132.535C64.9642 132.535 70.1139 130.37 73.7598 126.041C77.4056 121.712 79.2285 113.941 79.2285 102.73C79.2285 93.2969 77.3145 86.4154 73.4863 82.0859C69.7038 77.7109 64.554 75.5234 58.0371 75.5234C51.7936 75.5234 46.7806 77.7337 42.998 82.1543C39.2155 86.5749 37.3242 93.8893 37.3242 104.098ZM125.166 181.617V81.4023H151.211V92.1348C154.811 87.623 158.115 84.5697 161.123 82.9746C165.179 80.8327 169.668 79.7617 174.59 79.7617C184.297 79.7617 191.794 83.4759 197.08 90.9043C202.412 98.3327 205.078 107.516 205.078 118.453C205.078 130.53 202.184 139.758 196.396 146.139C190.609 152.473 183.294 155.641 174.453 155.641C170.169 155.641 166.25 154.911 162.695 153.453C159.186 151.995 156.042 149.83 153.262 146.959V181.617H125.166ZM153.057 117.906C153.057 123.648 154.264 127.91 156.68 130.689C159.095 133.469 162.148 134.859 165.84 134.859C169.076 134.859 171.787 133.538 173.975 130.895C176.162 128.206 177.256 123.671 177.256 117.291C177.256 111.412 176.117 107.105 173.838 104.371C171.559 101.591 168.779 100.201 165.498 100.201C161.943 100.201 158.981 101.591 156.611 104.371C154.242 107.151 153.057 111.663 153.057 117.906ZM299.004 124.605H243.223C243.724 129.072 244.932 132.398 246.846 134.586C249.535 137.73 253.044 139.303 257.373 139.303C260.107 139.303 262.705 138.619 265.166 137.252C266.67 136.386 268.288 134.859 270.02 132.672L297.432 135.201C293.239 142.493 288.18 147.734 282.256 150.924C276.331 154.068 267.832 155.641 256.758 155.641C247.142 155.641 239.577 154.296 234.062 151.607C228.548 148.873 223.968 144.566 220.322 138.688C216.722 132.763 214.922 125.813 214.922 117.838C214.922 106.49 218.545 97.3073 225.791 90.2891C233.083 83.2708 243.132 79.7617 255.938 79.7617C266.328 79.7617 274.531 81.334 280.547 84.4785C286.562 87.623 291.143 92.1803 294.287 98.1504C297.432 104.12 299.004 111.891 299.004 121.461V124.605ZM270.703 111.275C270.156 105.898 268.698 102.047 266.328 99.7227C264.004 97.3984 260.928 96.2363 257.1 96.2363C252.679 96.2363 249.147 97.9909 246.504 101.5C244.818 103.688 243.747 106.946 243.291 111.275H270.703ZM311.787 81.4023H337.695V93.2285C341.569 88.3978 345.488 84.957 349.453 82.9062C353.418 80.8099 358.249 79.7617 363.945 79.7617C371.647 79.7617 377.663 82.0632 381.992 86.666C386.367 91.2233 388.555 98.2871 388.555 107.857V154H360.596V114.078C360.596 109.521 359.753 106.308 358.066 104.439C356.38 102.525 354.01 101.568 350.957 101.568C347.585 101.568 344.85 102.844 342.754 105.396C340.658 107.949 339.609 112.529 339.609 119.137V154H311.787V81.4023ZM399.971 53.7852H494.102V78.5312H462.52V154H431.553V78.5312H399.971V53.7852Z" fill="#343D3A"/>
<path d="M509.414 53.7852H540.449V154H509.414V53.7852ZM562.598 53.7852H614.072C625.283 53.7852 633.669 56.4512 639.229 61.7832C644.834 67.1152 647.637 74.7031 647.637 84.5469C647.637 94.6641 644.583 102.571 638.477 108.268C632.415 113.964 623.141 116.812 610.654 116.812H593.701V154H562.598V53.7852ZM593.701 96.5098H601.289C607.259 96.5098 611.452 95.4844 613.867 93.4336C616.283 91.3372 617.49 88.6712 617.49 85.4355C617.49 82.291 616.442 79.625 614.346 77.4375C612.249 75.25 608.307 74.1562 602.52 74.1562H593.701V96.5098ZM663.838 53.7852H746.826V75.1816H694.873V91.1094H743.066V111.549H694.873V131.305H748.33V154H663.838V53.7852Z" fill="#ED365B"/>
<path d="M402.971 267.635L398.983 238.211L385.43 267.719H381.272L367.725 238.224L363.794 267.635H349.529L357.256 216.544H371.315L383.348 244.344L395.46 216.544H409.517L417.173 267.635H402.971V267.635Z" fill="#343D3A"/>
<path d="M460.54 229.218H446.659V267.635H432.52V229.218H418.638V216.544H460.54V229.218V229.218Z" fill="#343D3A"/>
<path d="M490.012 268.927C474.459 268.927 462.844 257.414 462.844 242.132C462.844 226.764 474.459 215.253 490.012 215.253C503.404 215.253 513.776 224.091 515.853 237.045H501.59C499.836 231.805 495.421 228.403 490.043 228.403C482.807 228.403 477.5 234.22 477.5 242.131C477.5 250.011 482.807 255.745 490.043 255.745C495.713 255.745 500.17 252.051 501.601 246.374H516C514.057 259.808 503.623 268.927 490.012 268.927Z" fill="#343D3A"/>
<path d="M309.351 267.527H301.268L302.498 259.444H310.581L309.351 267.527Z" fill="#ED365B"/>
<path d="M260.083 267.527H252L253.23 259.444H261.312L260.083 267.527Z" fill="#ED365B"/>
<path d="M324.312 224.679H348.3L349.528 216.684H325.541L324.312 224.679Z" fill="#ED365B"/>
<path d="M321.098 246.431H345.087L346.315 238.436H322.328L321.098 246.431Z" fill="#ED365B"/>
<path d="M291.68 224.679H315.667L316.897 216.684H292.908L291.68 224.679Z" fill="#ED365B"/>
<path d="M317.983 267.44H341.97L343.2 259.444H319.213L317.983 267.44Z" fill="#ED365B"/>
<path d="M268.649 267.44H292.636L293.866 259.444H269.878L268.649 267.44Z" fill="#ED365B"/>
</svg>
